<svg id="Icons" height="512" viewBox="0 0 74 74" width="512" xmlns="http://www.w3.org/2000/svg"><path d="m37 72c-7.29 0-13-15.374-13-35s5.71-35 13-35 13 15.374 13 35-5.71 35-13 35zm0-68c-5.312 0-11 13.26-11 33s5.688 33 11 33 11-13.26 11-33-5.688-33-11-33z"/><path d="m13.626 59.162c-4.369 0-7.459-1.214-8.843-3.624-2.483-4.304 1.151-11.511 9.717-19.279a85.675 85.675 0 0 1 10.271-7.884c1.7-1.128 3.507-2.243 5.362-3.312 2.193-1.26 4.358-2.4 6.436-3.4a85.012 85.012 0 0 1 10.167-4.178 52.511 52.511 0 0 1 10.145-2.414 1 1 0 0 1 .242 1.986 50.458 50.458 0 0 0 -9.754 2.325 83.173 83.173 0 0 0 -9.931 4.082c-2.037.979-4.158 2.1-6.308 3.337-1.817 1.047-3.586 2.14-5.256 3.246a83.64 83.64 0 0 0 -10.03 7.7c-7.7 6.983-11.273 13.421-9.326 16.8 1.989 3.464 9.884 3.5 20.118.08a83.05 83.05 0 0 0 9.93-4.081c2.037-.979 4.158-2.1 6.308-3.337 1.817-1.047 3.586-2.14 5.256-3.246a83.64 83.64 0 0 0 10.03-7.7c7.7-6.983 11.273-13.421 9.326-16.8a4.265 4.265 0 0 0 -1.9-1.68 1 1 0 0 1 .874-1.8 6.215 6.215 0 0 1 2.761 2.483c2.48 4.3-1.152 11.51-9.716 19.278a85.675 85.675 0 0 1 -10.271 7.884c-1.7 1.128-3.507 2.243-5.362 3.312-2.193 1.26-4.358 2.405-6.436 3.4a85.012 85.012 0 0 1 -10.167 4.178 44.7 44.7 0 0 1 -13.643 2.644z"/><path d="m62.539 59.05a1 1 0 0 1 -.109-1.994c2.55-.282 4.251-1.129 5.055-2.517 1.946-3.377-1.627-9.815-9.327-16.8a83.6 83.6 0 0 0 -10.029-7.7c-1.671-1.107-3.44-2.2-5.258-3.247-2.149-1.235-4.27-2.358-6.3-3.336a83.192 83.192 0 0 0 -9.932-4.082c-10.239-3.409-18.134-3.374-20.122.084-.757 1.321-.681 3.116.228 5.333a1 1 0 0 1 -1.85.758c-1.155-2.817-1.193-5.2-.113-7.086 2.56-4.459 10.965-4.825 22.485-.982a85.153 85.153 0 0 1 10.169 4.179c2.075 1 4.24 2.143 6.433 3.4 1.855 1.069 3.659 2.184 5.363 3.313a85.634 85.634 0 0 1 10.268 7.886c8.564 7.768 12.2 14.975 9.714 19.281-1.14 1.97-3.349 3.148-6.566 3.5a1.032 1.032 0 0 1 -.109.01z"/><path d="m53.511 58.35a1.074 1.074 0 0 1 -.209-.021 61.611 61.611 0 0 1 -6.567-1.81 85.041 85.041 0 0 1 -10.171-4.179c-2.075-1-4.24-2.143-6.432-3.4-1.856-1.069-3.66-2.184-5.364-3.313a85.634 85.634 0 0 1 -10.268-7.886 59.3 59.3 0 0 1 -4.367-4.387 1 1 0 1 1 1.5-1.328 56.946 56.946 0 0 0 4.216 4.235 83.612 83.612 0 0 0 10.027 7.7c1.671 1.107 3.44 2.2 5.258 3.247 2.149 1.235 4.27 2.358 6.3 3.336a83.192 83.192 0 0 0 9.932 4.082 59.6 59.6 0 0 0 6.352 1.751 1 1 0 0 1 -.206 1.978z"/><path d="m61.539 21.678a5.539 5.539 0 1 1 5.539-5.539 5.546 5.546 0 0 1 -5.539 5.539zm0-9.078a3.539 3.539 0 1 0 3.539 3.539 3.543 3.543 0 0 0 -3.539-3.539z"/><path d="m8.242 34.539a5.539 5.539 0 1 1 5.539-5.539 5.546 5.546 0 0 1 -5.539 5.539zm0-9.078a3.539 3.539 0 1 0 3.539 3.539 3.543 3.543 0 0 0 -3.539-3.539z"/><path d="m58 63.539a5.539 5.539 0 1 1 5.539-5.539 5.546 5.546 0 0 1 -5.539 5.539zm0-9.078a3.539 3.539 0 1 0 3.539 3.539 3.542 3.542 0 0 0 -3.539-3.539z"/></svg>