<?xml version="1.0" encoding="iso-8859-1"?>
<!-- Generator: Adobe Illustrator 18.0.0, SVG Export Plug-In . SVG Version: 6.00 Build 0)  -->
<!DOCTYPE svg PUBLIC "-//W3C//DTD SVG 1.1//EN" "http://www.w3.org/Graphics/SVG/1.1/DTD/svg11.dtd">
<svg version="1.1" id="Capa_1" xmlns="http://www.w3.org/2000/svg" xmlns:xlink="http://www.w3.org/1999/xlink" x="0px" y="0px"
	 viewBox="0 0 295.327 295.327" style="enable-background:new 0 0 295.327 295.327;" xml:space="preserve">
<g>
	<path d="M271.634,115.723c-1.925-2.971-5.665-4.187-8.973-2.924l-91.675,35.082l-17.053-17.054
		c-1.406-1.407-3.314-2.197-5.303-2.197h-25.565v-27.584h22.572c4.142,0,7.5-3.357,7.5-7.5c0-4.143-3.358-7.5-7.5-7.5H85.492
		c-4.142,0-7.5,3.357-7.5,7.5c0,4.143,3.358,7.5,7.5,7.5h22.572v27.584H92.403L24.08,100.333c-0.287-0.119-0.578-0.212-0.87-0.293
		c-3.6-1.003-7.463,0.813-8.929,4.353L0.579,137.475c-0.002,0.005-0.004,0.009-0.006,0.014c-0.396,0.957-0.58,1.949-0.572,2.924
		c0.021,2.923,1.761,5.689,4.631,6.877c0.011,0.005,0.023,0.008,0.035,0.013l53.447,22.137v32.342c0,4.143,3.358,7.5,7.5,7.5
		h117.753c1.989,0,3.897-0.79,5.303-2.196l81.976-81.977C273.148,122.605,273.56,118.692,271.634,115.723z M17.302,136.3
		l7.968-19.237l34.547,14.308c-1.064,1.295-1.704,2.952-1.704,4.76v17.074L17.302,136.3z M180.26,194.281H73.113V164.94
		c0.022-0.324,0.02-0.648,0-0.968V143.63h17.753c0.014,0,0.027,0.002,0.041,0.002c0.009,0,0.018-0.002,0.026-0.002h54.59
		l18.296,18.297c2.093,2.095,5.221,2.759,7.984,1.702l63.349-24.242L180.26,194.281z"/>
	<path d="M281.338,165.724c0,0-13.989,20.252-13.989,27.977c0,7.727,6.263,13.99,13.989,13.99c7.727,0,13.989-6.264,13.989-13.99
		C295.327,185.976,281.338,165.724,281.338,165.724z"/>
</g>
<g>
</g>
<g>
</g>
<g>
</g>
<g>
</g>
<g>
</g>
<g>
</g>
<g>
</g>
<g>
</g>
<g>
</g>
<g>
</g>
<g>
</g>
<g>
</g>
<g>
</g>
<g>
</g>
<g>
</g>
</svg>
