<?xml version="1.0" encoding="iso-8859-1"?>
<!-- Generator: Adobe Illustrator 18.0.0, SVG Export Plug-In . SVG Version: 6.00 Build 0)  -->
<!DOCTYPE svg PUBLIC "-//W3C//DTD SVG 1.1//EN" "http://www.w3.org/Graphics/SVG/1.1/DTD/svg11.dtd">
<svg version="1.1" id="Capa_1" xmlns="http://www.w3.org/2000/svg" xmlns:xlink="http://www.w3.org/1999/xlink" x="0px" y="0px"
	 viewBox="0 0 233.396 233.396" style="enable-background:new 0 0 233.396 233.396;" xml:space="preserve">
<g>
	<path d="M77.472,71.955c-22.29,0-22.29,33.677-22.29,44.743s0,44.743,22.29,44.743c15.694,0,34.65-19.959,34.65-44.743
		S93.167,71.955,77.472,71.955z M77.472,146.441c-3.363,0-7.29-7.79-7.29-29.743s3.927-29.743,7.29-29.743
		c6.727,0,19.65,12.56,19.65,29.743S84.199,146.441,77.472,146.441z"/>
	<path d="M50.922,69.904L10.856,49.871c-3.707-1.854-8.211-0.35-10.063,3.354c-1.852,3.705-0.351,8.21,3.353,10.062L44.213,83.32
		c1.077,0.538,2.222,0.793,3.349,0.793c2.751,0,5.4-1.52,6.714-4.147C56.128,76.262,54.626,71.756,50.922,69.904z"/>
	<path d="M44.214,150.076L4.148,170.109c-3.705,1.853-5.207,6.358-3.354,10.063c1.314,2.629,3.963,4.148,6.714,4.148
		c1.127,0,2.272-0.255,3.348-0.793l40.066-20.032c3.705-1.853,5.207-6.357,3.354-10.063
		C52.424,149.726,47.918,148.225,44.214,150.076z"/>
	<path d="M7.501,124.198h33.454c4.143,0,7.5-3.358,7.5-7.5c0-4.142-3.357-7.5-7.5-7.5H7.501c-4.143,0-7.5,3.358-7.5,7.5
		C0.001,120.84,3.359,124.198,7.501,124.198z"/>
	<path d="M155.923,71.955c-15.695,0-34.651,19.959-34.651,44.743s18.956,44.743,34.651,44.743c22.289,0,22.29-33.676,22.291-44.743
		C178.214,105.632,178.214,71.955,155.923,71.955z M155.923,146.441c-6.727,0-19.651-12.56-19.651-29.743
		s12.925-29.743,19.651-29.743c3.363,0,7.291,7.79,7.291,29.743C163.213,138.652,159.286,146.441,155.923,146.441z"/>
	<path d="M229.248,170.109l-40.065-20.033c-3.706-1.853-8.211-0.351-10.063,3.354c-1.853,3.705-0.351,8.21,3.354,10.062
		l40.065,20.033c1.077,0.539,2.222,0.794,3.349,0.794c2.751,0,5.4-1.519,6.714-4.148
		C234.454,176.467,232.952,171.961,229.248,170.109z"/>
	<path d="M185.833,84.113c1.127,0,2.271-0.255,3.348-0.793l40.066-20.032c3.705-1.853,5.207-6.357,3.355-10.063
		c-1.852-3.705-6.357-5.206-10.062-3.354l-40.066,20.032c-3.705,1.853-5.207,6.357-3.355,10.063
		C180.433,82.594,183.083,84.113,185.833,84.113z"/>
	<path d="M225.894,109.198H192.44c-4.143,0-7.5,3.358-7.5,7.5c0,4.142,3.357,7.5,7.5,7.5h33.454c4.143,0,7.5-3.358,7.5-7.5
		C233.394,112.556,230.037,109.198,225.894,109.198z"/>
</g>
<g>
</g>
<g>
</g>
<g>
</g>
<g>
</g>
<g>
</g>
<g>
</g>
<g>
</g>
<g>
</g>
<g>
</g>
<g>
</g>
<g>
</g>
<g>
</g>
<g>
</g>
<g>
</g>
<g>
</g>
</svg>
