<?xml version="1.0" encoding="UTF-8" standalone="no"?>
<!-- Generator: Adobe Illustrator 19.0.0, SVG Export Plug-In . SVG Version: 6.00 Build 0)  -->

<svg
   version="1.1"
   id="Layer_1"
   x="0px"
   y="0px"
   viewBox="0 0 512.001 512.001"
   style="enable-background:new 0 0 512.001 512.001;"
   xml:space="preserve"
   sodipodi:docname="seat_belt.svg"
   inkscape:version="1.1 (c68e22c387, 2021-05-23)"
   xmlns:inkscape="http://www.inkscape.org/namespaces/inkscape"
   xmlns:sodipodi="http://sodipodi.sourceforge.net/DTD/sodipodi-0.dtd"
   xmlns="http://www.w3.org/2000/svg"
   xmlns:svg="http://www.w3.org/2000/svg"><defs
   id="defs41" /><sodipodi:namedview
   id="namedview39"
   pagecolor="#ffffff"
   bordercolor="#999999"
   borderopacity="1"
   inkscape:pageshadow="0"
   inkscape:pageopacity="0"
   inkscape:pagecheckerboard="0"
   showgrid="false"
   inkscape:zoom="1.6249969"
   inkscape:cx="255.6928"
   inkscape:cy="256.30818"
   inkscape:window-width="1920"
   inkscape:window-height="1017"
   inkscape:window-x="-8"
   inkscape:window-y="-8"
   inkscape:window-maximized="1"
   inkscape:current-layer="Layer_1" />
<g
   id="g6"
   style="fill:#ff0000">
	<g
   id="g4"
   style="fill:#ff0000">
		<path
   d="m 504.397,389.006 c -31.326,-26.343 -66.046,-46.927 -102.638,-61.75 -6.193,-48.325 -20.188,-91.704 -39.951,-125.56 L 463.09,100.414 c 8.331,-8.331 8.331,-21.839 0,-30.17 -8.331,-8.331 -21.839,-8.331 -30.17,0 l -96.611,96.611 c -6.9,-7.426 -14.212,-13.911 -21.892,-19.346 16.56,-15.565 26.917,-37.654 26.917,-62.176 C 341.334,38.202 303.132,0 256,0 c -47.132,0 -85.333,38.202 -85.333,85.333 0,24.522 10.357,46.611 26.917,62.176 -44.515,31.505 -76.746,98.288 -87.239,178.934 -36.96,14.913 -71.826,35.818 -102.967,62.756 -8.911,7.708 -9.886,21.18 -2.178,30.091 7.708,8.911 21.18,9.886 30.091,2.178 21.95,-18.987 46.027,-34.583 71.483,-46.822 -0.063,3.107 -0.106,6.222 -0.106,9.354 0,39.359 5.14,77.561 14.866,112.403 2.572,9.22 10.973,15.597 20.546,15.597 h 71.253 c 11.782,0 21.333,-9.551 21.333,-21.333 v -76.495 c 11.844,-11.642 30.823,-11.642 42.667,0 v 76.495 c 0,11.782 9.551,21.333 21.333,21.333 h 71.253 c 9.573,0 17.974,-6.377 20.548,-15.598 9.726,-34.841 14.866,-73.044 14.866,-112.403 0,-2.868 -0.036,-5.721 -0.089,-8.568 25.364,12.16 49.495,27.563 71.692,46.229 9.017,7.583 22.475,6.42 30.058,-2.597 7.583,-9.017 6.421,-22.474 -2.597,-30.057 z M 356.173,312.019 C 326.21,304.007 295.468,299.602 264.694,298.81 l 65.699,-65.699 c 11.222,21.989 20.176,48.822 25.78,78.908 z M 213.334,85.334 c 0,-23.567 19.099,-42.667 42.667,-42.667 23.568,0 42.667,19.099 42.667,42.667 0,23.568 -19.1,42.666 -42.668,42.666 -23.568,0 -42.666,-19.099 -42.666,-42.666 z M 256,170.667 c 17.643,0 34.859,9.531 50.136,26.36 L 200.768,302.396 c -15.089,2.095 -30.058,5.058 -44.812,8.927 C 171.529,228.617 212.471,170.667 256,170.667 Z M 362.667,384 c 0,29.67 -3.225,58.522 -9.344,85.333 H 320 V 413.91 c 0,-11.142 -4.425,-21.837 -12.307,-29.72 -28.555,-28.555 -74.831,-28.555 -103.386,0 C 196.425,392.072 192,402.767 192,413.91 v 55.424 h -33.323 c -6.119,-26.811 -9.344,-55.663 -9.344,-85.333 0,-9.015 0.297,-17.883 0.861,-26.578 68.216,-21.672 142.799,-21.428 211.655,0.733 0.535,8.461 0.818,17.082 0.818,25.844 z"
   id="path2"
   style="fill:#ff0000" />
	</g>
</g>
<g
   id="g8">
</g>
<g
   id="g10">
</g>
<g
   id="g12">
</g>
<g
   id="g14">
</g>
<g
   id="g16">
</g>
<g
   id="g18">
</g>
<g
   id="g20">
</g>
<g
   id="g22">
</g>
<g
   id="g24">
</g>
<g
   id="g26">
</g>
<g
   id="g28">
</g>
<g
   id="g30">
</g>
<g
   id="g32">
</g>
<g
   id="g34">
</g>
<g
   id="g36">
</g>
</svg>
