<svg id="Capa_1" enable-background="new 0 0 64 64" height="512" viewBox="0 0 64 64" width="512" xmlns="http://www.w3.org/2000/svg"><g id="spark_plug"><path d="m61.7 5.13-2.83-2.83c-.304-.301-.765-.377-1.15-.19l-5.66 2.83c-.093.053-.26.19-.26.19l-7.78 7.78c-1.168-1.171-3.063-1.173-4.234-.006-.526.524-.838 1.225-.876 1.966-.739.035-1.438.346-1.96.87-.526.52-.833 1.221-.86 1.96-1.1.047-2.083.703-2.55 1.7l-.13-.13c-1.581-1.51-4.069-1.51-5.65 0-.754.748-1.175 1.768-1.17 2.83 0 .1.02.2.03.31-1.147-.099-2.281.302-3.11 1.1-.815.833-1.23 1.978-1.14 3.14-2.16-.192-4.067 1.403-4.259 3.564-.07.783.097 1.569.479 2.256l-5.09 3.64c-4.224 3.001-5.552 8.676-3.1 13.24l-5.27 5.27c-.39.393-.39 1.027 0 1.42l5.65 5.66c1.174 1.173 3.076 1.173 4.25 0 1.17-1.175 1.17-3.075 0-4.25l-2.12-2.12 1.73-1.72c1.493.795 3.159 1.21 4.85 1.21.29 0 .57-.01.86-.03 3.023-.249 5.782-1.818 7.54-4.29l3.64-5.09c.576.318 1.222.487 1.88.49 2.198.006 3.984-1.77 3.991-3.967 0-.101-.003-.202-.011-.303.09 0 .18.03.27.03 2.189.01 3.972-1.757 3.982-3.946 0-.108-.003-.216-.012-.324.09 0 .18.02.27.02 2.209-.004 3.997-1.798 3.993-4.007-.002-1.054-.42-2.065-1.163-2.813l-.13-.13c.997-.467 1.653-1.45 1.7-2.55.739-.027 1.44-.334 1.96-.86.524-.522.835-1.221.87-1.96 1.651-.085 2.921-1.493 2.836-3.144-.038-.741-.35-1.442-.876-1.966l7.78-7.78s.137-.167.19-.26l2.83-5.66c.19-.384.113-.847-.19-1.15zm-36.77 19.8c.792-.755 2.038-.755 2.83 0l1.66 1.66c-1.24.59-2.24 1.59-2.83 2.83l-1.66-1.66c-.781-.781-.782-2.047-.002-2.828zm7.07 3.07c2.209 0 4 1.791 4 4s-1.791 4-4 4-4-1.791-4-4 1.791-4 4-4zm-21.22 26.62c-.184.191-.288.445-.29.71.004.265.107.518.29.71l2.83 2.83c.419.359.468.991.109 1.41s-.991.468-1.41.109c-.039-.034-.076-.07-.109-.109l-4.95-4.95 4.28-4.28c.21.262.434.512.67.75.24.24.49.46.74.67zm15.49-5.28c-2.675 3.737-7.873 4.597-11.61 1.922-.37-.265-.718-.56-1.04-.882-1.737-1.72-2.621-4.124-2.41-6.56.2-2.438 1.462-4.665 3.45-6.09l5.21-3.72 10.12 10.12zm8.56-6.03c-.79.76-2.04.76-2.83 0l-11.31-11.31c-.781-.781-.782-2.047-.002-2.828.001-.001.001-.001.002-.002.79-.75 2.03-.75 2.82 0l2.51 2.5c-.01.11-.02.22-.02.33 0 3.314 2.686 6 6 6 .11 0 .22-.01.33-.02l2.5 2.51c.779.777.78 2.038.003 2.817-.001.001-.002.002-.003.003zm4.24-4.24c-.79.76-2.04.76-2.83 0l-1.66-1.66c1.24-.59 2.24-1.59 2.83-2.83l1.66 1.66c.794.768.837 2.011.069 2.805-.015.016-.031.032-.069.025zm4.24-4.24c-.79.75-2.03.75-2.82 0l-2.51-2.5c.01-.11.02-.22.02-.33 0-3.314-2.686-6-6-6-.11 0-.22.01-.33.02l-2.5-2.51c-.775-.78-.775-2.04 0-2.82.79-.76 2.04-.76 2.83 0l9.19 9.19h.01l2.11 2.12c.781.774.787 2.036.013 2.817-.004.004-.009.009-.013.013zm.71-6.37c-.381.389-1.006.396-1.396.014-.005-.005-.01-.009-.014-.014l-7.07-7.07c-.359-.419-.31-1.051.109-1.41.374-.321.927-.321 1.301 0l7.07 7.07c.392.389.401 1.016.013 1.409-.003.002-.005.004-.013.001zm2.83-2.82c-.393.39-1.027.39-1.42 0l-7.07-7.07c-.39-.393-.39-1.027 0-1.42.191-.183.445-.287.71-.29.265.001.52.105.71.29l7.07 7.07c.39.393.39 1.027 0 1.42zm2.83-2.83c-.397.38-1.023.38-1.42 0l-7.07-7.07c-.387-.394-.387-1.026 0-1.42.394-.387 1.026-.387 1.42 0l7.07 7.07c.39.393.39 1.027 0 1.42zm0-4.24-4.25-4.25 1.42-1.41 4.24 4.24zm2.83-2.83-4.25-4.25 1.42-1.41 4.24 4.24zm2.82-2.83-4.24-4.24 1.42-1.42 4.24 4.24zm2.56-3.1-3.7-3.7 3.78-1.88 1.8 1.8z"/></g></svg>