<?xml version="1.0" encoding="UTF-8" standalone="no"?>
<svg
   height="32"
   viewBox="-22 -16 23.999999 24.015008"
   width="32"
   version="1.1"
   id="svg1015"
   sodipodi:docname="051-cpu.svg"
   inkscape:version="1.1 (c68e22c387, 2021-05-23)"
   xmlns:inkscape="http://www.inkscape.org/namespaces/inkscape"
   xmlns:sodipodi="http://sodipodi.sourceforge.net/DTD/sodipodi-0.dtd"
   xmlns:xlink="http://www.w3.org/1999/xlink"
   xmlns="http://www.w3.org/2000/svg"
   xmlns:svg="http://www.w3.org/2000/svg">
  <defs
     id="defs1019">
    <linearGradient
       id="linearGradient824"
       inkscape:swatch="solid">
      <stop
         style="stop-color:#000000;stop-opacity:1;"
         offset="0"
         id="stop822" />
    </linearGradient>
    <linearGradient
       inkscape:collect="always"
       xlink:href="#linearGradient824"
       id="linearGradient826"
       x1="-14.362832"
       y1="-3.7770475"
       x2="-5.7291077"
       y2="-3.7770475"
       gradientUnits="userSpaceOnUse" />
  </defs>
  <sodipodi:namedview
     id="namedview1017"
     pagecolor="#ffffff"
     bordercolor="#666666"
     borderopacity="1.0"
     inkscape:pageshadow="2"
     inkscape:pageopacity="0.0"
     inkscape:pagecheckerboard="0"
     inkscape:document-units="pt"
     showgrid="false"
     units="px"
     inkscape:zoom="12.807693"
     inkscape:cx="23.345344"
     inkscape:cy="18.66066"
     inkscape:window-width="1440"
     inkscape:window-height="838"
     inkscape:window-x="-8"
     inkscape:window-y="-8"
     inkscape:window-maximized="1"
     inkscape:current-layer="svg1015" />
  <g
     id="g830"
     transform="matrix(1.0582543,0,0,1.0550548,0.66194528,0.26266385)"
     style="stroke-width:0.946386">
    <path
       d="m -5.7291077,-7.4473973 c 0,-0.3143982 -0.2594828,-0.5690465 -0.5794447,-0.5690465 h -7.4748356 c -0.320142,0 -0.579444,0.2546483 -0.579444,0.5690465 v 7.34069986 c 0,0.31439811 0.259302,0.56904634 0.579444,0.56904634 h 7.4748356 c 0.3199619,0 0.5794446,-0.25464823 0.5794446,-0.56904634 z m -1.2168338,6.77165333 H -13.203942 V -6.878351 h 6.2580005 z m 0,0"
       id="path1011"
       style="stroke:url(#linearGradient826);stroke-width:1.42048;stroke-miterlimit:4;stroke-dasharray:none" />
    <path
       d="m 0.69204286,-5.6264485 c 0.31996254,0 0.57944484,-0.2546483 0.57944484,-0.5690465 0,-0.3143982 -0.2594823,-0.5690465 -0.57944484,-0.5690465 H -2.194496 v -1.2519023 h 1.43195139 c 0.32014382,0 0.57944484,-0.2546482 0.57944484,-0.5690466 0,-0.314398 -0.25930102,-0.5690465 -0.57944484,-0.5690465 H -2.2314357 c -0.2120405,-1.2012211 -1.172651,-2.1403261 -2.3967273,-2.3434041 v -1.442533 c 0,-0.314398 -0.2594829,-0.569046 -0.5794447,-0.569046 -0.3201432,0 -0.5794447,0.254648 -0.5794447,0.569046 v 1.395942 h -1.274778 v -3.30047 c 0,-0.314399 -0.2594826,-0.569046 -0.5794446,-0.569046 -0.320143,0 -0.5794444,0.254647 -0.5794444,0.569046 v 3.30047 h -1.2747782 v -1.395942 c 0,-0.314398 -0.2594825,-0.569046 -0.5794444,-0.569046 -0.320143,0 -0.579445,0.254648 -0.579445,0.569046 v 1.395942 h -1.274778 v -3.30047 c 0,-0.314399 -0.259482,-0.569046 -0.579444,-0.569046 -0.320144,0 -0.579445,0.254647 -0.579445,0.569046 v 3.30047 h -1.274778 v -1.395942 c 0,-0.314398 -0.259482,-0.569046 -0.579444,-0.569046 -0.320144,0 -0.579444,0.254648 -0.579444,0.569046 v 1.442533 c -1.224078,0.203078 -2.185051,1.142183 -2.397091,2.3434041 h -1.468711 c -0.320142,0 -0.579444,0.2546485 -0.579444,0.5690465 0,0.3143984 0.259302,0.5690466 0.579444,0.5690466 h 1.432134 v 1.2519023 h -2.88672 c -0.319962,0 -0.579445,0.2546483 -0.579445,0.5690465 0,0.3143982 0.259483,0.5690465 0.579445,0.5690465 h 2.88672 v 1.2519022 h -1.432134 c -0.320142,0 -0.579444,0.2546484 -0.579444,0.5690466 0,0.3143983 0.259302,0.5690465 0.579444,0.5690465 h 1.432134 v 1.2519021 h -2.88672 c -0.319962,0 -0.579445,0.2546485 -0.579445,0.5690465 0,0.3143985 0.259483,0.56904663 0.579445,0.56904663 h 2.88672 v 1.25190222 h -1.432134 c -0.320142,0 -0.579444,0.25464844 -0.579444,0.56904656 0,0.31439829 0.259302,0.56904649 0.579444,0.56904649 h 1.468711 c 0.210773,1.205845 1.169935,2.1520629 2.397091,2.3642102 v 1.4427114 c 0,0.3142198 0.2593,0.5690467 0.579444,0.5690467 0.319961,0 0.579444,-0.2548269 0.579444,-0.5690467 V 3.9335326 h 1.274778 V 6.778765 c 0,0.3143982 0.259301,0.5690465 0.579445,0.5690465 0.319962,0 0.579444,-0.2546483 0.579444,-0.5690465 V 3.9335326 h 1.274778 v 1.4169263 c 0,0.3142198 0.259302,0.5690467 0.579445,0.5690467 0.3199619,0 0.5794444,-0.2548269 0.5794444,-0.5690467 V 3.9335326 h 1.2747782 V 6.778765 c 0,0.3143982 0.2593014,0.5690465 0.5794444,0.5690465 0.319962,0 0.5794446,-0.2546483 0.5794446,-0.5690465 V 3.9335326 h 1.2747782 v 1.4169263 c 0,0.3142198 0.2593015,0.5690467 0.5794447,0.5690467 0.3199618,0 0.5794445,-0.2548269 0.5794445,-0.5690467 V 3.9077475 c 1.2269737,-0.2121473 2.1861359,-1.1583652 2.3967273,-2.3642102 h 1.46889109 c 0.32014382,0 0.57944484,-0.2546482 0.57944484,-0.56904649 0,-0.31439812 -0.25930102,-0.56904656 -0.57944484,-0.56904656 H -2.194496 v -1.25190222 h 2.88653868 c 0.31996252,0 0.57944482,-0.25464813 0.57944482,-0.56904663 0,-0.314398 -0.2594823,-0.5690465 -0.57944482,-0.5690465 H -2.194496 v -1.2519021 h 1.43195139 c 0.32014382,0 0.57944484,-0.2546482 0.57944484,-0.5690465 0,-0.3143982 -0.25930102,-0.5690466 -0.57944484,-0.5690466 H -2.194496 V -5.6264485 Z M -5.0886403,2.7954397 h -0.050883 c -0.017022,0 -0.034042,-0.0025 -0.051245,-0.0025 -0.017202,0 -0.033862,0.0025 -0.050883,0.0025 h -2.3402314 c -0.016659,0 -0.03368,-0.0025 -0.050883,-0.0025 -0.017384,0 -0.034223,0.0025 -0.050882,0.0025 h -2.3404133 c -0.01684,0 -0.03368,-0.0025 -0.05089,-0.0025 -0.01721,0 -0.03423,0.0025 -0.05106,0.0025 h -2.340413 c -0.01666,0 -0.03368,-0.0025 -0.05089,-0.0025 -0.01721,0 -0.03422,0.0025 -0.05088,0.0025 h -2.340232 c -0.01702,0 -0.03387,-0.0025 -0.05106,-0.0025 -0.01721,0 -0.03404,0.0025 -0.05106,0.0025 h -0.05089 c -0.953186,0.00515 -1.730004,-0.7495408 -1.735074,-1.6856224 v -0.057438 c 0,-0.016715 0.0023,-0.033609 0.0023,-0.050859 0,-0.0167154 -0.0023,-0.0339648 -0.0023,-0.0503253 v -2.2971694 c 0,-0.016892 0.0023,-0.033609 0.0023,-0.05068 0,-0.017072 -0.0023,-0.034142 -0.0023,-0.05068 v -2.2969918 c 0,-0.016716 0.0023,-0.033609 0.0023,-0.05068 0,-0.01725 -0.0023,-0.033965 -0.0023,-0.050681 v -2.2971695 c 0,-0.016716 0.0023,-0.033431 0.0023,-0.05068 0,-0.017072 -0.0023,-0.033965 -0.0023,-0.050326 v -2.2973467 c 0,-0.016716 0.0023,-0.033609 0.0023,-0.050503 0,-0.017072 -0.0023,-0.03432 -0.0023,-0.050681 v -0.049614 c -9.05e-4,-0.9430172 0.774645,-1.7094516 1.735074,-1.7144306 h 0.05161 c 0.01647,0 0.03332,0.0024 0.05034,0.0024 0.01721,0 0.03387,-0.0024 0.05034,-0.0024 h 2.341318 c 0.01683,0 0.03349,0.0024 0.05051,0.0024 0.01721,0 0.03404,-0.0024 0.05052,-0.0024 h 2.341317 c 0.01666,0 0.0335,0.0024 0.05053,0.0024 0.01684,0 0.03368,-0.0024 0.05034,-0.0024 h 2.3413186 c 0.016659,0 0.033499,0.0024 0.05052,0.0024 0.017022,0 0.03368,-0.0024 0.050521,-0.0024 h 2.3413181 c 0.016477,0 0.033319,0.0024 0.050158,0.0024 0.017203,0 0.034042,-0.0024 0.050521,-0.0024 h 0.051607 c 0.9604295,0.005 1.7361608,0.7714134 1.7352553,1.7144306 v 0.049614 c 0,0.016716 -0.00272,0.033609 -0.00272,0.050681 0,0.016895 0.00272,0.033965 0.00272,0.050503 v 2.2973473 c 0,0.016537 -0.00272,0.033253 -0.00272,0.050326 0,0.01725 0.00272,0.03432 0.00272,0.05068 v 2.2971695 c 0,0.016895 -0.00272,0.033431 -0.00272,0.050681 0,0.017072 0.00272,0.034143 0.00272,0.05068 v 2.2969918 c 0,0.016716 -0.00272,0.033609 -0.00272,0.05068 0,0.017071 0.00272,0.034142 0.00272,0.05068 v 2.29716973 c 0,0.016537 -0.00272,0.0336091 -0.00272,0.0503254 0,0.01725 0.00272,0.034321 0.00272,0.050859 v 0.049436 c -7.227e-4,0.9360809 -0.7739297,1.6939794 -1.7269354,1.6936238 z m 0,0"
       id="path1013"
       style="stroke-width:0.0434745" />
  </g>
</svg>
